<?xml version="1.0" encoding="UTF-8"?>
<svg id="Capa_2" data-name="Capa 2" xmlns="http://www.w3.org/2000/svg" viewBox="0 0 205.15 288.17">
  <defs>
    <style>
      .cls-1 {
        fill: #e9ffff;
        stroke-width: 0px;
      }
    </style>
  </defs>
  <g id="Capa_2-2" data-name="Capa 2">
    <g>
      <g>
        <path class="cls-1" d="m43.32,62.35c-9.02,10.94-15.11,24.4-17.04,39.17l12.69-15.4.25.2.27-.46h0s3.83-23.51,3.83-23.51h0Z"/>
        <path class="cls-1" d="m89.63,45.5v28.87l-22.02,14-12.19-7.04,3.35-20.56c8.84-7.71,19.48-12.95,30.86-15.26m10-11.28c-19.45.86-37.03,8.9-50.17,21.51l-5.02,30.8,23.64,13.65.43-.54,31.12-19.78v-45.64h0Z"/>
        <path class="cls-1" d="m37.32,152.58c7.36,11.81,17.8,21.48,30.21,27.91l-8.88-15.72h-.01s-.42-.35-.42-.35l-.16.27-20.74-12.11h0Z"/>
        <path class="cls-1" d="m43.99,103.61l12.43,7.17,7.63,26.96-7.33,8.81-16.11-9.41c-3.05-7.45-4.71-15.3-4.95-23.42l8.33-10.11m-2.33-12.89l-16.01,19.43c-.02.49-.02.99-.02,1.49,0,11.6,2.55,22.6,7.12,32.48h0s26.25,15.34,26.25,15.34l16.11-19.37-10.17-35.94-23.28-13.43h0Z"/>
        <path class="cls-1" d="m123.18,155.16l7.77,9.34-6.31,11.15c-6.9,2.32-14.12,3.5-21.51,3.5s-14.27-1.12-21.02-3.34l-6.96-12.31,6.35-7.63,17.55,7.85c1.3.58,2.69.87,4.08.87,1.63,0,3.26-.4,4.73-1.19l15.31-8.23m2.46-12.68l-22.51,12.1-24.47-10.94-15.61,18.77,12.19,21.56h.01c8.65,3.34,18.05,5.17,27.88,5.17s19.6-1.9,28.4-5.37l11.52-20.36-17.41-20.93h0Z"/>
        <path class="cls-1" d="m168.01,154.03l-19.97,11.66-.16-.27-.41.33h-.01s-8.16,14.44-8.16,14.44c11.65-6.15,21.54-15.19,28.71-26.16h0Z"/>
        <path class="cls-1" d="m114.63,45.12c11.84,2.04,22.95,7.21,32.18,15.06l3.45,21.14-11.52,6.66-24.11-14.97v-27.89m-10-10.96v44.41l33.92,21.07,22.69-13.11-5.13-31.44c-13.51-12.67-31.58-20.56-51.48-20.93h0Z"/>
        <path class="cls-1" d="m162.23,61.51l3.96,24.34h0s.28.48.28.48l.25-.21,13.35,16.21c-1.84-15.47-8.26-29.54-17.84-40.82h0Z"/>
        <path class="cls-1" d="m161.69,103.61l8.89,10.79c-.33,8.32-2.15,16.35-5.43,23.94l-15.78,9.21-7.82-9.4,5.81-26.28,14.32-8.27m2.33-12.9l-25.47,14.71-7.56,34.18-.86.46,16.97,20.4,25.82-15.08c4.94-10.2,7.71-21.65,7.71-33.74,0-.26,0-.52-.01-.78l-16.6-20.15h0Z"/>
        <path class="cls-1" d="m43.32,62.35c-9.02,10.94-15.11,24.4-17.04,39.17l12.69-15.4.25.2.27-.46h0s3.83-23.51,3.83-23.51h0Z"/>
        <path class="cls-1" d="m89.63,45.5v28.87l-22.02,14-12.19-7.04,3.35-20.56c8.84-7.71,19.48-12.95,30.86-15.26m10-11.28c-19.45.86-37.03,8.9-50.17,21.51l-5.02,30.8,23.64,13.65.43-.54,31.12-19.78v-45.64h0Z"/>
        <path class="cls-1" d="m37.32,152.58c7.36,11.81,17.8,21.48,30.21,27.91l-8.88-15.72h-.01s-.42-.35-.42-.35l-.16.27-20.74-12.11h0Z"/>
        <path class="cls-1" d="m43.99,103.61l12.43,7.17,7.63,26.96-7.33,8.81-16.11-9.41c-3.05-7.45-4.71-15.3-4.95-23.42l8.33-10.11m-2.33-12.89l-16.01,19.43c-.02.49-.02.99-.02,1.49,0,11.6,2.55,22.6,7.12,32.48h0s26.25,15.34,26.25,15.34l16.11-19.37-10.17-35.94-23.28-13.43h0Z"/>
        <path class="cls-1" d="m123.18,155.16l7.77,9.34-6.31,11.15c-6.9,2.32-14.12,3.5-21.51,3.5s-14.27-1.12-21.02-3.34l-6.96-12.31,6.35-7.63,17.55,7.85c1.3.58,2.69.87,4.08.87,1.63,0,3.26-.4,4.73-1.19l15.31-8.23m2.46-12.68l-22.51,12.1-24.47-10.94-15.61,18.77,12.19,21.56h.01c8.65,3.34,18.05,5.17,27.88,5.17s19.6-1.9,28.4-5.37l11.52-20.36-17.41-20.93h0Z"/>
        <path class="cls-1" d="m168.01,154.03l-19.97,11.66-.16-.27-.41.33h-.01s-8.16,14.44-8.16,14.44c11.65-6.15,21.54-15.19,28.71-26.16h0Z"/>
        <path class="cls-1" d="m114.63,45.12c11.84,2.04,22.95,7.21,32.18,15.06l3.45,21.14-11.52,6.66-24.11-14.97v-27.89m-10-10.96v44.41l33.92,21.07,22.69-13.11-5.13-31.44c-13.51-12.67-31.58-20.56-51.48-20.93h0Z"/>
        <path class="cls-1" d="m162.23,61.51l3.96,24.34h0s.28.48.28.48l.25-.21,13.35,16.21c-1.84-15.47-8.26-29.54-17.84-40.82h0Z"/>
        <path class="cls-1" d="m161.69,103.61l8.89,10.79c-.33,8.32-2.15,16.35-5.43,23.94l-15.78,9.21-7.82-9.4,5.81-26.28,14.32-8.27m2.33-12.9l-25.47,14.71-7.56,34.18-.86.46,16.97,20.4,25.82-15.08c4.94-10.2,7.71-21.65,7.71-33.74,0-.26,0-.52-.01-.78l-16.6-20.15h0Z"/>
        <path class="cls-1" d="m47.93,34.08l-2.73,16.72c1.89-1.79,3.85-3.5,5.9-5.11l1.76-10.8-4.93-.81h0Z"/>
        <path class="cls-1" d="m19.15,110.18l-11.8,14.33,3.86,3.17,8.14-9.88c-.14-2.03-.22-4.09-.22-6.16,0-.49,0-.97.02-1.46h0Z"/>
        <path class="cls-1" d="m157.76,34.08l-4.94.81,1.68,10.28c2.04,1.58,4,3.24,5.88,5l-2.62-16.09h0Z"/>
        <path class="cls-1" d="m187.12,110.9c.01.25.01.49.01.74,0,2.29-.09,4.56-.27,6.8l7.61,9.24,3.86-3.17-11.21-13.61h0Z"/>
        <path class="cls-1" d="m133.83,189.85c-2.32.91-4.69,1.73-7.11,2.42l-9.44,16.69,4.35,2.46,12.2-21.57h0Z"/>
        <path class="cls-1" d="m188.46,136.3l-6.22,3.63c-.92,2.61-1.98,5.16-3.16,7.64l11.9-6.95-2.52-4.32h0Z"/>
        <path class="cls-1" d="m72.94,190.04l11.53,20.38,4.35-2.46-8.79-15.54c-2.41-.68-4.78-1.48-7.09-2.38h0Z"/>
        <path class="cls-1" d="m17.64,135.3l-2.52,4.32,11.48,6.7c-1.11-2.45-2.11-4.96-2.99-7.53l-5.97-3.49h0Z"/>
      </g>
      <g>
        <path class="cls-1" d="m20.83,233.68c0,1.92-1.44,3.41-3.26,3.41q-.72,0-2.54-.67c-1.06-.38-2.26-.62-3.26-.62-2.16,0-3.7,1.1-3.7,2.64,0,.72.38,1.44,1.01,1.82q.86.62,3.94,1.44c7.06,1.92,10.08,4.94,10.08,10.13,0,2.78-1.01,5.47-2.74,7.34-2.02,2.21-5.38,3.41-9.46,3.41-6.38,0-10.9-2.26-10.9-5.42,0-1.92,1.44-3.5,3.17-3.5q.91,0,4.42,1.34c1.1.43,2.5.72,3.6.72,2.45,0,4.03-1.34,4.03-3.36,0-1.01-.43-1.82-1.25-2.3-.91-.62-1.58-.86-5.09-1.92-3.74-1.1-5.23-1.82-6.58-3.17-1.34-1.3-2.06-3.36-2.06-5.81,0-5.95,4.94-10.22,11.81-10.22,5.14,0,8.79,1.97,8.79,4.75Z"/>
        <path class="cls-1" d="m55.3,247.7c0,4.75-.62,7.01-2.59,9.55-2.59,3.36-6.77,5.33-11.38,5.33-7.92,0-13.87-5.57-13.87-12.96v-15.46c0-1.78.1-2.21.48-3.07.58-1.06,1.87-1.82,3.22-1.82s2.64.77,3.17,1.82c.43.86.48,1.25.48,3.07v14.4c0,4.32,2.59,7.15,6.58,7.15,2.06,0,4.08-.96,5.23-2.5.96-1.3,1.34-2.88,1.34-5.52v-13.54c0-1.78.1-2.21.48-3.07.58-1.06,1.87-1.82,3.22-1.82s2.64.77,3.17,1.82c.43.86.48,1.25.48,3.07v13.54Z"/>
        <path class="cls-1" d="m73.63,257.35c0,1.78-.1,2.21-.48,3.07-.58,1.06-1.87,1.82-3.17,1.82s-2.64-.77-3.22-1.82c-.43-.86-.48-1.25-.48-3.07v-21.03h-3.65c-1.58,0-1.97-.05-2.74-.43-.96-.48-1.63-1.68-1.63-2.88s.67-2.35,1.63-2.83c.77-.38,1.1-.43,2.74-.43h14.5c1.58,0,1.97.05,2.74.43.96.48,1.63,1.68,1.63,2.83s-.67,2.4-1.63,2.88c-.77.38-1.1.43-2.74.43h-3.5v21.03Z"/>
        <path class="cls-1" d="m112.32,247.7c0,4.75-.62,7.01-2.59,9.55-2.59,3.36-6.77,5.33-11.38,5.33-7.92,0-13.87-5.57-13.87-12.96v-15.46c0-1.78.1-2.21.48-3.07.58-1.06,1.87-1.82,3.22-1.82s2.64.77,3.17,1.82c.43.86.48,1.25.48,3.07v14.4c0,4.32,2.59,7.15,6.58,7.15,2.06,0,4.08-.96,5.23-2.5.96-1.3,1.34-2.88,1.34-5.52v-13.54c0-1.78.1-2.21.48-3.07.58-1.06,1.87-1.82,3.22-1.82s2.64.77,3.17,1.82c.43.86.48,1.25.48,3.07v13.54Z"/>
        <path class="cls-1" d="m125.04,257.35c0,1.78-.1,2.21-.48,3.07-.58,1.06-1.87,1.82-3.17,1.82s-2.64-.77-3.22-1.82c-.43-.86-.48-1.25-.48-3.07v-24.34c0-2.26,1.44-3.74,3.65-3.74,1.3,0,2.06.43,3.02,1.63l14.16,17.81v-14.55c0-1.78.1-2.21.48-3.07.58-1.06,1.87-1.82,3.22-1.82s2.64.77,3.17,1.82c.43.86.48,1.25.48,3.07v23.86c0,1.58-.24,2.3-1.01,3.12-.67.77-1.49,1.1-2.5,1.1-.91,0-1.63-.29-2.3-.91q-.29-.24-1.49-1.73l-13.54-17.23v14.98Z"/>
        <path class="cls-1" d="m157.34,255.67l-.77,2.78c-.77,2.78-1.82,3.89-3.74,3.89-2.02,0-3.75-1.63-3.75-3.55,0-.82.05-1.06.62-2.54l8.35-23.04c.96-2.59,2.88-4.08,5.42-4.08s4.46,1.49,5.42,4.08l8.35,23.04c.58,1.49.62,1.78.62,2.54,0,1.92-1.68,3.55-3.74,3.55-1.92,0-2.93-1.06-3.74-3.89l-.77-2.78h-12.29Zm6.19-18.77l-3.89,12.19h7.78l-3.89-12.19Z"/>
        <path class="cls-1" d="m189.02,257.35c0,1.78-.1,2.21-.48,3.07-.58,1.06-1.87,1.82-3.17,1.82s-2.64-.77-3.22-1.82c-.43-.86-.48-1.3-.48-3.07v-22.27c0-2.26.14-2.83.77-3.7.86-1.15,1.97-1.63,3.65-1.63h7.54c3.65,0,6.19.82,8.16,2.64,2.11,1.97,3.36,5.04,3.36,8.16,0,2.69-.91,5.42-2.45,7.3-1.87,2.3-4.56,3.41-8.11,3.41h-5.57v6.1Zm3.7-12.48c2.98,0,4.9-1.73,4.9-4.32s-1.78-4.42-4.51-4.42h-4.08v8.74h3.7Z"/>
      </g>
      <g>
        <path class="cls-1" d="m85.1,284.52c.77,0,.96.02,1.32.22.48.24.82.82.82,1.39s-.34,1.18-.79,1.42c-.38.19-.55.22-1.34.22h-6.89c-.86,0-1.25-.12-1.61-.5-.29-.29-.43-.65-.43-1.03,0-.58.24-.98.98-1.8.82-.86,4.01-4.56,4.54-5.23,1.06-1.39,1.44-2.16,1.44-2.93,0-.91-.67-1.58-1.54-1.58s-1.46.58-1.75,1.63c-.31,1.1-.38,1.32-.65,1.58-.26.31-.62.46-1.1.46-1.01,0-1.68-.72-1.68-1.8,0-2.81,2.47-5.21,5.4-5.21s5.09,2.09,5.09,4.85c0,1.63-.55,2.9-2.09,4.8-1.03,1.27-2.06,2.42-3.19,3.53h3.48Z"/>
        <path class="cls-1" d="m101.52,279.75c0,4.87-2.5,8.42-5.93,8.42-1.42,0-2.93-.72-3.94-1.87-1.34-1.56-1.97-3.65-1.97-6.67,0-2.71.67-4.92,1.97-6.41,1.01-1.15,2.52-1.87,3.91-1.87,3.46,0,5.95,3.53,5.95,8.4Zm-8.06-.05c0,3.07.79,4.87,2.16,4.87,1.25,0,2.14-2.02,2.14-4.82s-.89-4.8-2.14-4.8c-1.34,0-2.16,1.8-2.16,4.75Z"/>
        <path class="cls-1" d="m112.87,284.52c.77,0,.96.02,1.32.22.48.24.82.82.82,1.39s-.34,1.18-.79,1.42c-.38.19-.55.22-1.34.22h-6.89c-.86,0-1.25-.12-1.61-.5-.29-.29-.43-.65-.43-1.03,0-.58.24-.98.98-1.8.82-.86,4.01-4.56,4.54-5.23,1.06-1.39,1.44-2.16,1.44-2.93,0-.91-.67-1.58-1.54-1.58s-1.46.58-1.75,1.63c-.31,1.1-.38,1.32-.65,1.58-.26.31-.62.46-1.1.46-1.01,0-1.68-.72-1.68-1.8,0-2.81,2.47-5.21,5.4-5.21s5.09,2.09,5.09,4.85c0,1.63-.55,2.9-2.09,4.8-1.03,1.27-2.06,2.42-3.19,3.53h3.48Z"/>
        <path class="cls-1" d="m128.57,282.96c0,3.02-2.4,5.21-5.67,5.21-1.25,0-2.4-.31-3.34-.91-1.3-.84-2.28-2.35-2.28-3.53,0-.86.79-1.63,1.73-1.63.46,0,.84.17,1.13.5q.12.12.6.96c.43.74,1.2,1.22,2.02,1.22,1.2,0,2.04-.84,2.04-2.06,0-1.1-.6-1.68-1.97-1.8-.74-.07-.98-.14-1.3-.38-.36-.29-.58-.74-.58-1.25,0-.41.17-.86.41-1.1.24-.22.34-.24,1.37-.53,1.03-.29,1.54-.82,1.54-1.61s-.6-1.34-1.46-1.34c-.7,0-1.22.31-1.9,1.06-.65.74-1.01.96-1.58.96-.86,0-1.56-.72-1.56-1.58,0-1.99,2.47-3.79,5.16-3.79s4.78,1.82,4.78,4.32c0,1.42-.48,2.3-1.78,3.24,1.85,1.03,2.64,2.28,2.64,4.06Z"/>
      </g>
      <g>
        <path class="cls-1" d="m81.32,4.18c.22.93-.23,1.73-1.07,1.93-.35.08-.6.07-1.4-.07-.8-.13-1.29-.12-1.96.04-2.45.58-3.5,2.75-2.78,5.81.71,3.01,2.6,4.47,5.08,3.88q.89-.21,2.31-1.31c.25-.18.52-.32.75-.37.79-.19,1.62.41,1.83,1.29.36,1.52-1.37,3.08-4.1,3.73-4.7,1.1-8.55-1.44-9.72-6.42-1.13-4.79,1.27-8.88,5.82-9.95,2.78-.65,4.89-.07,5.24,1.43Z"/>
        <path class="cls-1" d="m104.4,7.97c.27,4.99-2.73,8.59-7.38,8.84-4.82.26-8.14-2.94-8.43-8.12-.14-2.56.67-4.87,2.27-6.42,1.42-1.38,3.18-2.15,5.19-2.26,4.67-.26,8.07,2.97,8.35,7.96Zm-11.9.51c.18,3.21,1.85,5.19,4.32,5.05,2.4-.13,3.84-2.25,3.67-5.35-.17-3.09-1.84-5.02-4.24-4.89-2.37.13-3.92,2.23-3.75,5.18Z"/>
        <path class="cls-1" d="m114.48,14.65c-.11.88-.18,1.09-.43,1.5-.35.49-1.04.79-1.68.71-.67-.08-1.26-.54-1.49-1.1-.16-.46-.16-.67-.05-1.55l1.36-11.05c.14-1.12.24-1.4.61-1.79.5-.52,1.08-.69,1.91-.59l.45.06,3.29.4c1.81.22,3.02.78,3.89,1.81.93,1.11,1.36,2.71,1.17,4.25-.16,1.33-.78,2.64-1.66,3.47-1.07,1.03-2.47,1.41-4.23,1.2l-2.76-.34-.37,3.02Zm2.6-5.97c1.48.18,2.54-.56,2.69-1.84.16-1.31-.61-2.3-1.97-2.47l-2.03-.25-.53,4.33,1.83.23Z"/>
        <path class="cls-1" d="m130.42,16.66l-.76,1.23c-.76,1.23-1.42,1.61-2.34,1.35-.97-.28-1.57-1.31-1.3-2.23.11-.39.17-.5.65-1.13l7.22-9.9c.82-1.11,1.95-1.56,3.17-1.2,1.22.35,1.94,1.34,2.04,2.71l.8,12.23c.07.79.05.94-.05,1.31-.27.92-1.3,1.47-2.29,1.19-.92-.27-1.26-.92-1.26-2.39l.02-1.44-5.9-1.71Zm5.59-8.15l-3.56,5.31,3.73,1.08-.17-6.4Z"/>
      </g>
    </g>
  </g>
</svg>